# xmcd
#
# Track frame offsets:
# 150
# 21571
# 42075
# 57490
# 73144
# 89235
# 110394
# 136901
# 156080
# 184667
#
# Disc length: 2722 seconds
#
#
# Revision: 3
# Processed by: cddbd v1.5.2PL0 Copyright (c) Steve Scherf et al.
# Submitted via: FreeRIP 2.942 
#
DISCID=900aa00a
DTITLE=Saint-Germain-Des-Prés Café - Vol. 7 - Ladies In Nu Jazz
DYEAR=2005
DGENRE=Jazz
TTITLE0=Goldilocks (Feat. Beate S. Lech)
TTITLE1=About (Feat. Tokunbo Akinro)
TTITLE2=Bye Bye Blackbird
TTITLE3=Let Yourself Go - Puttin' On The Ritz
TTITLE4=Yellow Daisies (Feat. Navasha Daya)
TTITLE5=Here
TTITLE6=Twisted (Feat. Ultra Naté)
TTITLE7=Blush
TTITLE8=To Know This
TTITLE9=Tenessee Waltz
EXTD=YEAR: 2006
EXTT0=
EXTT1=
EXTT2=
EXTT3=
EXTT4=
EXTT5=
EXTT6=
EXTT7=
EXTT8=
EXTT9=
PLAYORDER=
